<?xml version="1.0" encoding="UTF-8"?>
<svg width="800" height="600" viewBox="0 0 800 600"
     xmlns="http://www.w3.org/2000/svg" fill="none">
  <!-- Big cluster -->
  <path d="M400 550 
           C200 550, 150 400, 250 300
           C100 300, 120 150, 300 150
           C350 50, 450 50, 500 150
           C680 150, 700 300, 550 300
           C650 400, 600 550, 400 550Z"
        fill="var(--green)" opacity="0.15"/>
  <!-- Leaf details -->
  <ellipse cx="260" cy="320" rx="100" ry="60"
           transform="rotate(-20 260 320)"
           fill="var(--green)" opacity="0.2"/>
  <ellipse cx="540" cy="320" rx="120" ry="70"
           transform="rotate(15 540 320)"
           fill="var(--green)" opacity="0.2"/>
  <ellipse cx="400" cy="220" rx="140" ry="80"
           fill="var(--green)" opacity="0.2"/>
  <!-- Outline for subtle definition -->
  <path d="M400 550 
           C200 550, 150 400, 250 300
           C100 300, 120 150, 300 150
           C350 50, 450 50, 500 150
           C680 150, 700 300, 550 300
           C650 400, 600 550, 400 550Z"
        stroke="var(--green)" stroke-width="2" fill="none" opacity="0.3"/>
</svg>